<?xml version="1.0" encoding="UTF-8"?>
<svg version="1.1" xmlns="http://www.w3.org/2000/svg" width="512" height="512">
<path d="M0 0 C1.01790619 0.00215515 2.03581238 0.0043103 3.08456421 0.00653076 C17.69363523 0.05620146 32.02575853 0.30709809 46.375 3.3125 C47.34985352 3.51117676 48.32470703 3.70985352 49.32910156 3.91455078 C97.7109774 14.03517194 141.69928269 35.9516877 177.375 70.3125 C178.3640332 71.26068604 178.3640332 71.26068604 179.37304688 72.22802734 C188.86130305 81.37247479 197.6012044 90.66984009 205.375 101.3125 C206.23306152 102.46355017 207.09113451 103.61459177 207.94921875 104.765625 C213.98736829 112.95680614 219.34595521 121.47054105 224.375 130.3125 C224.73948242 130.94430176 225.10396484 131.57610352 225.47949219 132.22705078 C247.08534998 169.97532572 256.85198095 212.74189997 256.6875 255.9375 C256.68534485 256.95540619 256.6831897 257.97331238 256.68096924 259.02206421 C256.63129854 273.63113523 256.38040191 287.96325853 253.375 302.3125 C253.07698486 303.77478027 253.07698486 303.77478027 252.77294922 305.26660156 C242.65232806 353.6484774 220.7358123 397.63678269 186.375 433.3125 C185.74287598 433.97185547 185.11075195 434.63121094 184.45947266 435.31054688 C175.31502521 444.79880305 166.01765991 453.5387044 155.375 461.3125 C154.22394983 462.17056152 153.07290823 463.02863451 151.921875 463.88671875 C143.73224019 469.92427396 135.22961724 475.30707302 126.375 480.3125 C125.66778809 480.7146875 124.96057617 481.116875 124.23193359 481.53125 C101.09654164 494.5566741 75.92537591 503.30551461 49.9375 508.625 C49.21860596 508.77235596 48.49971191 508.91971191 47.7590332 509.0715332 C33.08339502 511.86090125 18.55831162 512.66142619 3.64770508 512.62817383 C0.70811513 512.6250221 -2.2304558 512.64854926 -5.16992188 512.67382812 C-18.54306192 512.71848737 -31.43916711 511.51301542 -44.625 509.3125 C-46.33055054 509.03031616 -46.33055054 509.03031616 -48.07055664 508.74243164 C-91.33802759 500.97044532 -132.38793216 480.98345309 -165.625 452.3125 C-166.37007813 451.67828125 -167.11515625 451.0440625 -167.8828125 450.390625 C-181.38779833 438.57948485 -194.05918743 425.82889772 -204.625 411.3125 C-205.48149066 410.16255169 -206.33826433 409.01281411 -207.1953125 407.86328125 C-213.23534209 399.67315742 -218.61867614 391.16870382 -223.625 382.3125 C-224.0271875 381.60528809 -224.429375 380.89807617 -224.84375 380.16943359 C-237.8691741 357.03404164 -246.61801461 331.86287591 -251.9375 305.875 C-252.08485596 305.15610596 -252.23221191 304.43721191 -252.3840332 303.6965332 C-255.35789088 288.05024391 -255.99800362 272.57681954 -255.9375 256.6875 C-255.93534485 255.66959381 -255.9331897 254.65168762 -255.93096924 253.60293579 C-255.88129854 238.99386477 -255.63040191 224.66174147 -252.625 210.3125 C-252.42632324 209.33764648 -252.22764648 208.36279297 -252.02294922 207.35839844 C-241.90232806 158.9765226 -219.9858123 114.98821731 -185.625 79.3125 C-184.99287598 78.65314453 -184.36075195 77.99378906 -183.70947266 77.31445312 C-174.56502521 67.82619695 -165.26765991 59.0862956 -154.625 51.3125 C-153.47394983 50.45443848 -152.32290823 49.59636549 -151.171875 48.73828125 C-142.98224019 42.70072604 -134.47961724 37.31792698 -125.625 32.3125 C-124.91778809 31.9103125 -124.21057617 31.508125 -123.48193359 31.09375 C-100.34654164 18.0683259 -75.17537591 9.31948539 -49.1875 4 C-48.46860596 3.85264404 -47.74971191 3.70528809 -47.0090332 3.5534668 C-31.36274391 0.57960912 -15.88931954 -0.06050362 0 0 Z " fill="#231F20" transform="translate(255.625,-0.3125)"/>
<path d="M0 0 C0.80091568 -0.00974854 1.60183136 -0.01949707 2.42701721 -0.02954102 C29.47975663 -0.29114921 57.49319087 -0.08125296 78.6875 19.25390625 C86.74419771 27.522194 96.82938934 43.01484376 96.69856262 54.875 C96.69100952 55.82770782 96.68345642 56.78041565 96.67567444 57.76199341 C96.65602882 59.32806839 96.65602882 59.32806839 96.63598633 60.92578125 C96.61654474 63.20946875 96.59759121 65.49316044 96.57905579 67.77685547 C96.56789545 68.99145447 96.55673512 70.20605347 96.54523659 71.4574585 C96.4894304 78.5828215 96.48565875 85.70837615 96.47567904 92.83392715 C96.46443216 100.35960137 96.4342167 107.88400513 96.34350586 115.40917969 C96.2637223 122.03960502 96.24829745 128.66832332 96.26932335 135.29931641 C96.2668864 137.81244946 96.24351872 140.32566234 96.19770241 142.83837891 C95.91142968 159.37490505 97.903513 170.19768755 108.20877647 183.37239075 C110.20935282 186.01546286 111.80830498 188.78859877 113.43359375 191.67578125 C113.89378906 192.47886719 114.35398437 193.28195312 114.828125 194.109375 C115.80236159 196.72493628 115.72591149 197.68870186 114.62109375 200.23828125 C105.91095783 212.24235182 90.28756883 226.87808349 76.30078125 232.10546875 C72.19182816 232.7092934 70.12279885 231.59186389 66.75 229.21484375 C60.09036701 223.65571164 54.76656978 216.97046701 49.6796875 209.98828125 C48.08696027 207.86061528 46.56762704 206.02934063 44.62109375 204.23828125 C44.29109375 205.22828125 43.96109375 206.21828125 43.62109375 207.23828125 C24.41288698 224.87905275 0.59561096 234.19494129 -25.50390625 233.54296875 C-42.34919543 232.73668711 -59.17252098 226.40122794 -71.33203125 214.52734375 C-74.48241489 211.0042048 -77.03854108 207.33760012 -79.37890625 203.23828125 C-79.96285156 202.26955078 -79.96285156 202.26955078 -80.55859375 201.28125 C-85.37912831 192.64299282 -85.74835277 182.67909346 -85.69140625 172.98828125 C-85.6864917 171.98684082 -85.68157715 170.98540039 -85.67651367 169.95361328 C-85.35968389 149.75124664 -79.12886161 131.4230958 -65.19140625 116.48828125 C-39.59119169 92.40930185 2.32873888 89.37681697 35.62109375 88.23828125 C35.62646583 84.25373647 35.59234113 80.27156736 35.5234375 76.28759766 C35.4965868 74.2752337 35.49996396 72.26253922 35.50390625 70.25 C35.36046411 63.11375368 35.03952831 58.15370071 30.2019043 52.69287109 C22.84946208 45.92748874 16.10440271 44.75446916 6.41796875 44.9921875 C-2.22461716 45.55235511 -9.1566626 48.09649765 -15.37890625 54.23828125 C-19.63614033 59.38243909 -22.28570512 64.91128334 -24.51953125 71.171875 C-25.37890625 73.23828125 -25.37890625 73.23828125 -27.37890625 75.23828125 C-31.81621102 75.71217226 -36.29437852 75.5692079 -40.75390625 75.55078125 C-42.70840698 75.54667236 -42.70840698 75.54667236 -44.70239258 75.54248047 C-73.38162545 75.23556205 -73.38162545 75.23556205 -78.37890625 70.23828125 C-80.06270182 55.38543193 -76.03129481 44.79000379 -66.765625 33.05859375 C-50.2246575 13.5126387 -25.89255873 0.25954511 0 0 Z " fill="#FDFDFD" transform="translate(246.37890625,102.76171875)"/>
<path d="M0 0 C3.74671965 0.56703544 6.31037077 1.57212048 9.484375 3.625 C10.32766357 4.16205566 11.17095215 4.69911133 12.03979492 5.25244141 C12.9341626 5.82913574 13.82853027 6.40583008 14.75 7 C37.56617503 21.3597209 61.91674511 32.89035939 88 40 C88.80646973 40.22381348 89.61293945 40.44762695 90.44384766 40.67822266 C144.53658642 55.42314445 201.17548192 47.40643073 251.66821289 24.18676758 C260.45977739 20.16686882 260.45977739 20.16686882 265 20 C268 22 268 22 268.6875 24.625 C266.8159563 33.81257816 255.36187597 39.76141369 247.96679688 44.70898438 C235.86818788 52.65057379 223.46974473 58.73737203 210 64 C208.99453125 64.40992188 207.9890625 64.81984375 206.953125 65.2421875 C165.63638509 81.39327674 114.47243345 78.8581628 74.0625 61.625 C49.74904766 50.88075256 9.38880934 30.24832146 -1 4 C-0.625 1.75 -0.625 1.75 0 0 Z " fill="#F5961D" transform="translate(112,336)"/>
<path d="M0 0 C0.82815637 22.40481508 1.5190292 42.20797535 -14.6484375 59.79296875 C-20.27413116 65.14133949 -27.30909947 68.13881675 -35.0625 68.5 C-42.77548006 68.10167709 -48.09280124 65.33100928 -53.375 59.75 C-60.08453456 51.47668945 -61.04069577 43.43562024 -60.25439453 32.97460938 C-59.16975946 24.55567613 -54.63445522 16.28257136 -48 11 C-41.14862047 6.88101588 -33.96905883 3.21829137 -26 2 C-24.95328125 1.81824219 -23.9065625 1.63648438 -22.828125 1.44921875 C-15.14267954 0.21585578 -7.77179141 -0.10086998 0 0 Z " fill="#252122" transform="translate(283,225)"/>
<path d="M0 0 C0.9180542 -0.01015137 1.8361084 -0.02030273 2.78198242 -0.03076172 C17.59513666 0.15763666 17.59513666 0.15763666 21.875 4.4375 C23.30375516 20.29668225 19.7807009 34.74384063 9.875 47.4375 C3.82472182 54.55323597 3.82472182 54.55323597 -1.125 55.4375 C-3.10335605 50.13289695 -0.73448482 45.88356332 1.25 40.9375 C4.90286446 31.62832711 4.90286446 31.62832711 6 21.75 C6.00257813 20.98300781 6.00515625 20.21601563 6.0078125 19.42578125 C5.99868933 17.36270664 5.99868933 17.36270664 4.875 15.4375 C0.29704188 14.33707104 -4.2480716 14.30486863 -8.9296875 14.33984375 C-10.0156572 14.34196617 -10.0156572 14.34196617 -11.12356567 14.34413147 C-13.41575407 14.34968925 -15.70784157 14.36223367 -18 14.375 C-19.56249858 14.38002047 -21.12499871 14.38458241 -22.6875 14.38867188 C-26.50003835 14.39964481 -30.31250212 14.4168799 -34.125 14.4375 C-31.01668146 7.80187861 -24.54365108 4.75849798 -17.9375 2.0625 C-11.98359138 0.23111755 -6.18032907 0.04856231 0 0 Z " fill="#D48623" transform="translate(383.125,332.5625)"/>
</svg>
