<?xml version="1.0" encoding="UTF-8"?>
<svg version="1.1" viewBox="0 0 989 953" width="989" height="953" xmlns="http://www.w3.org/2000/svg">
<path transform="translate(0)" d="m0 0h989v953h-989z" fill="#FDFDFD"/>
<path transform="translate(466,29)" d="m0 0h47l30 3 28 4 23 5 23 6 16 5 20 7 20 8 15 7 27 14 13 8 11 7 13 9 10 7 9 7 11 9 14 12 9 9 8 7 16 17 5 5 6 8 4 5v2l3 1 8 11 10 14 9 14 6 10 8 14 11 21 13 29 8 23 5 17 6 24 4 18 4 33 2 27v33l-3 39-4 25-6 29-7 23-9 26-8 19-5 11-8 16-7 12-6 11-18 27-7 9-10 13-9 11-14 15-7 7-4 5-8 7-15 14-14 11-9 7-18 13-11 7-13 8-22 12-14 7-18 8-11 5-36 12-18 5-23 5-29 5-15 2-15 1h-64l-20-2-39-6-25-6-12-3-22-7-19-7-19-8-17-8-19-10-13-8-7-4-11-7-17-12-13-10-10-9-9-7-9-9-8-7-11-11-7-8-11-12-11-14-10-13-10-15-12-19-6-10-8-16-7-15-7-16-8-21-8-26-6-22-2-12v-6l5-1 16 4h25l4 4 7 20 7 16 10 19 9 14 12 17 11 13 12 13 10 10 22 18 13 9 11 7 10 6 21 10 8 4 20 7 20 6 24 5 29 3h35l24-2 11-2 23-5 26-8 15-6 17-8 18-10 17-11 13-10 11-9 13-12 7-7 7-8 9-11 1-2h2l2-5 7-9 8-13 9-16 10-21 12-36 3-11 4-27 1-9v-45l-3-24-4-20-7-24-4-11-9-20-10-19-8-13-4-5-3-5-6-8-14-17-19-19-22-18-15-10-15-9-15-8-8-4-20-8-18-6-23-6-35-5h-48l-23 3-22 4-24 7-19 7-16 7-15 8-15 9-15 10-7 6-9 7-8 7-22 22-5 7h-2l-2 5-6 7-7 10-12 20-7 13-5 11-11 28-2 2-27 1-16 4-4-1 1-12 9-36 9-26 14-35 8-15 7-13 13-22 7-10 10-14 9-12 11-13 1-2h2l2-5 34-34 11-9 10-9 11-8 18-13 15-10 17-10 20-11 9-4 17-8 32-12 20-6 23-6 29-6 30-4z" fill="#F27134"/>
<path transform="translate(242,322)" d="m0 0h12l26 3 21 6 15 6 16 9 10 7 9 7 14 14 11 14 11 18 6 14 7 24 1 5 6 2v3l10 1 26-11h3v6l-12 5-6 2 6 2 13 2 1 1v6l-9-1-30-6-5-3-2-2v30l-2 15-6 22-5 12-8 15-12 17-12 13-13 12-11 7-15 9-14 6-16 5-23 4h-34l-25-5-19-7-16-8-14-9-11-9-7-6-14-16-8-12-1-1v-6l13-9 13-13 7-11 6-14 3-13v-20l-2-11-5-14-8-14-8-9-11-9-8-6v-5l11-16 13-14h2v-2l8-7 4-3h2v-2l11-7 14-8 21-8 21-5z" fill="#F27134"/>
<path transform="translate(358,291)" d="m0 0 4 2 11 8 3 6-1 6-4 6-4 2h-4l1 6-3 6-5 9-5-3 1-6 5-7-1-6-5-4-3-1-2 4-7 10-4-2-1-3 14-19z" fill="#F27134"/>
<path transform="translate(308,630)" d="m0 0h2l14 35 2 6-5 2-2-1-3 4-9 1-7-6-5-13v-6l3-5 4-2h6l-4-11 1-3z" fill="#F27134"/>
<path transform="translate(330,616)" d="m0 0h4l10 17 11 18-1 4-3 1h-2l-4 5-8 1-7-5-6-10-1-3v-7l2-4 3-2 6-1-6-10z" fill="#F27134"/>
<path transform="translate(406,350)" d="m0 0 4 4-1 3 5 3 2 3-1 7 7 3 2 3v6l-6 7-17 10-3-1-1-4 9-6 10-7 1-1v-5h-7l-17 10h-3l-2-5 18-11 3-3-1-5h-6l-18 11h-2l-2-6 20-12z" fill="#F27134"/>
<path transform="translate(430,397)" d="m0 0h3l1 5v3l3 3 1 5-3 6 5 2 2 3v6l-4 5-20 7h-5l-1-1v-5l22-7 2-2v-5h-8l-16 5h-4l-1-6 21-7 3-2-1-5-5-1-19 6-3-1-1-5 24-8z" fill="#F27134"/>
<path transform="translate(360,610)" d="m0 0 6 2 4 5v7l-7 8 3 4h5l1-1v-6l3-3 3 1 1 6-3 6-6 4-8-1-12-13-5-5 2-4 3-1 2 1 1-5 4-4z" fill="#F27134"/>
<path transform="translate(386,580)" d="m0 0h9l9 6 6 7v8l-6 7h-9l-8-5 2-5 6-8-1-3-6-1-5 5-1 5-4-1v-7l6-7z" fill="#F27134"/>
<path transform="translate(431,475)" d="m0 0 16 1 9 4 3 5 1 8-4 8-4 2h-7v-5l8-3 1-7-3-3-7-2h-19l-4 4 1 7 7 2v5l-1 1-7-1-5-5-1-8 2-6 5-5z" fill="#F27134"/>
<path transform="translate(381,324)" d="m0 0 4 1 1 4-9 9-5 4-2 3v5l1 1h6l7-7 8-7h4l2 3-20 20-4 2-2-2-1-4-6-3-2-3v-7l5-7 8-7z" fill="#F27134"/>
<path transform="translate(407,542)" d="m0 0h9l10 4 6 7v9l-5 6-8 1-3-1 2-5 2-1 6-1v-6l-6-4-5-2h-8l-1 1v7l3 1-2 5-5-2-2-3v-9l5-6z" fill="#F27134"/>
<path transform="translate(394,564)" d="m0 0 15 8 23 13 2 1-2 6-6-2-25-14-9-6 1-5z" fill="#F27134"/>
<path transform="translate(414,508)" d="m0 0h7l24 5 1 2-1 4-3 1 2 2v5l-2 1-4-2-1-6-3-2-20-4-1-3z" fill="#F27134"/>
<path transform="translate(333,634)" d="m0 0 5 1 8 13-1 7-6 1-5-4-5-9v-6z" fill="#FDFDFD"/>
<path transform="translate(305,649)" d="m0 0 6 1 6 15-1 5-5 2-6-5-4-11 2-6z" fill="#FDFDFD"/>
<path transform="translate(410,526)" d="m0 0 10 2 20 6v5l-5 1-27-8z" fill="#F27134"/>
<path transform="translate(360,299)" d="m0 0 5 2 4 4 1 3-3 6-2 2h-6l-7-5 7-11z" fill="#FDFDFD"/>
<path transform="translate(358,616)" d="m0 0 5 2 2 5-3 5-3 1-4-4 1-7z" fill="#FDFDFD"/>
<path transform="translate(399,592)" d="m0 0 4 1 2 6-3 4-6-1-2-3z" fill="#FDFDFD"/>
<path transform="translate(370,598)" d="m0 0 4 3-1 4-4 1-3-4z" fill="#F27134"/>
<path transform="translate(448,537)" d="m0 0 6 1-1 6-6-1z" fill="#F27134"/>
</svg>
