<svg width="18" height="24" viewBox="0 0 18 24" fill="none" xmlns="http://www.w3.org/2000/svg">
<path d="M9.03391 24C8.65791 23.589 6.95891 21.416 5.08391 18.487C4.53691 17.571 4.18291 16.857 4.25091 16.673C4.42891 16.193 7.60591 15.93 8.58391 16.365C8.88191 16.497 8.87391 16.672 8.87391 16.774C8.87391 17.214 8.85191 18.393 8.85191 18.393C8.85204 18.451 8.86359 18.5084 8.8859 18.5619C8.90821 18.6154 8.94084 18.664 8.98193 18.7049C9.02302 18.7458 9.07176 18.7782 9.12538 18.8003C9.179 18.8223 9.23643 18.8336 9.29441 18.8335C9.35239 18.8334 9.40977 18.8218 9.46329 18.7995C9.51681 18.7772 9.5654 18.7446 9.60631 18.7035C9.64721 18.6624 9.67962 18.6137 9.70169 18.56C9.72375 18.5064 9.73504 18.449 9.73491 18.391L9.72991 15.452C9.72991 15.197 9.45191 15.133 9.39891 15.123C8.88791 15.121 7.85091 15.117 6.73791 15.117C4.28091 15.117 3.73191 15.218 3.31491 14.945C2.41091 14.354 0.931911 10.368 0.897911 8.12601C0.848911 4.96401 2.72291 2.225 5.36191 0.868005C6.49849 0.295931 7.75348 -0.00137596 9.02591 4.78743e-06C13.2029 4.78743e-06 16.6429 3.153 17.1009 7.209L17.1019 7.22C17.1859 8.201 11.7809 8.409 10.7119 8.124C10.5479 8.08 10.5059 7.912 10.5059 7.84L10.4999 4.996C10.4996 4.87878 10.4528 4.76646 10.3697 4.68376C10.2867 4.60105 10.1741 4.55474 10.0569 4.555C9.93969 4.55527 9.82737 4.60209 9.74466 4.68517C9.66196 4.76825 9.61565 4.88078 9.61591 4.998L9.62491 8.86401C9.62586 8.94006 9.65306 9.01345 9.70189 9.07176C9.75073 9.13007 9.8182 9.16972 9.89291 9.184L13.2469 9.183C15.0369 9.183 15.7889 9.39001 16.2889 9.771C16.6219 10.025 16.7499 10.51 16.6379 11.141C15.6329 16.755 9.27291 23.71 9.03391 24Z" fill="#FF8702"/>
</svg>
