<?xml version="1.0" encoding="UTF-8"?>
<svg version="1.1" viewBox="0 0 1200 800" width="1200" height="800" xmlns="http://www.w3.org/2000/svg">
<path transform="translate(0)" d="m0 0h1200v800h-1200z" fill="#FD0000"/>
<path transform="translate(582,179)" d="m0 0h34l16 3 17 5 15 6 19 11 10 8 3 2v2l4 2 10 10v2h2l13 18 8 14 6 14 4 13 4 23v28l-3 15-2 13-6 16-8 16-6 10-9 12-21 21-15 10-10 6-19 8-18 5-20 3h-23l-22-4-14-4-15-6-16-9-10-7-13-11-11-11-8-11-9-14-8-17-6-19-3-15v-41l5-22 9-23 12-20 11-13 17-17 18-12 16-8 16-6 14-4z" fill="#FEFEFE"/>
<path transform="translate(622,214)" d="m0 0h22l20 4 16 6 11 6 14 10 7 6 7 8 10 14 8 16v3h-2l-6-8-8-8-13-8-7-3-4 1-5 21-3 21-1 12v24l3 32 3 21 10-3 12-6 10-9h2v-2h2l2-4 5-8h2l-1 7-7 15-7 11-9 11-7 7-13 10-14 8-13 5-15 4-8 1h-25l-17-3-15-5-15-8-11-8-13-12-11-14-9-17-3-7-5-22-1-11v-12l2-16 5-17 6-14 7-11 7-9 4-5 8-7 9-7 15-9 15-6 10-3z" fill="#FD0000"/>
<path transform="translate(699,263)" d="m0 0 7 1 10 6 10 9 8 9 9 18 2 10v19l-3 11-8 16-7 9-10 9-10 6-7 3h-4l-2-8-4-40v-28l4-32 4-17z" fill="#FEFEFE"/>
<path transform="translate(582,179)" d="m0 0h34l16 3 17 5 15 6 19 11 10 8 3 2v2l4 2 10 10v2h2l13 18 8 14 6 14 4 13 4 23v28l-3 15-2 13-6 16-8 16-6 10-9 12-21 21-15 10-10 6-19 8-18 5-20 3h-23l-22-4-14-4-15-6-16-9-10-7-13-11-11-11-8-11-9-14-8-17-6-19-3-15v-41l5-22 9-23 12-20 11-13 17-17 18-12 16-8 16-6 14-4zm11 2-17 2-21 5-16 6-20 11-17 13-8 8-7 8-9 12-10 17-6 15-4 13-2 10-1 3-2 20 1 13 4 26 7 21 9 17 9 13 8 10 13 13 9 7 14 9 16 8 17 6 19 4 7 1h25l20-3 17-5 17-7 17-10 11-9 11-10v-2l3-1 9-11 4-5 6-11 3-5-1-2-8 10-9 10-14 11-14 8-15 6-16 4-9 1h-21l-13-2-15-4-18-8-12-8-13-11-8-9-10-15-6-12-5-14-3-15v-34l6-23 8-16 7-11 8-10 10-10 17-12 17-8 17-5 15-2h18l17 3 13 4 10 4 16 9 13 11 9 9 7 9 1-2-8-14-8-10-9-10-11-11-13-9-5-3h-2v-2l-16-7-12-5-21-5-15-2zm29 33-17 3-18 6-16 9-11 8-12 12-6 7-10 16-6 14-5 21-1 10v12l2 17 4 16 9 19 7 10 11 13 11 10 18 11 11 5 19 5 8 1h25l17-3 12-4 16-8 11-7 16-15 7-9 8-12 7-16v-5h-2l-5 8-2 4h-2v2l-4 2-8 7-14 7-8 2-4-29-2-24v-24l3-27 5-24 2-4 5 1 12 6 9 7 8 8 3 5h2l-1-5-7-14-10-14-8-9-14-11-13-8-14-6-14-4-12-2zm77 49-3 9-3 16-3 25v28l4 40 2 8 6-1 12-6 13-11 7-9 8-16 3-11v-19l-3-13-5-8-3-7-11-12-8-7-11-6z" fill="#FDA5A5"/>
<path transform="translate(654,259)" d="m0 0h5l-1 9-5 27-2 17v29l3 30 2 13v6l-8-1-14-9-8-7v-2h-2l-7-10-6-13-3-12v-22l4-14 6-12 7-9 9-9h2v-2l11-6z" fill="#FEFEFE"/>
<path transform="translate(556,504)" d="m0 0h16l1 5-7 32-3 16-7 31-3 5-1 1h-16l-3-2 2-13 8-35 3-16-8 1-2-2 1-13 3-5z" fill="#FEFEFE"/>
<path transform="translate(512,504)" d="m0 0h15l1 1v9l-3 12-4 20-3 12-4 20-3 12-3 4h-16l-3-2 1-8 7-32 3-16 1-8-8 1-1-1 1-16 3-3z" fill="#FEFEFE"/>
<path transform="translate(400,536)" d="m0 0 9 1 2 2 3 12h2l6-9 4-5 2-1h10l2 1-1 9-6 27-3 15-3 3h-10l-1-1 1-10 2-9v-4l-7 10-3 2-2-2-2-9-2 3-3 16-3 4-9 1-2-1v-7l7-34 3-11 1-2z" fill="#FEFEFE"/>
<path transform="translate(650,540)" d="m0 0h17l9 3 4 5 1 2v12l-4 7-5 5h-2l4 18-3 3h-7l-5-3-3-11-1-2-2 5-1 7-2 3-3 1h-8l-2-2 2-12 7-30 2-9z" fill="#FEFEFE"/>
<path transform="translate(676,255)" d="m0 0 8 1v7l-5 22-3 21v44l4 33 1 11-2 1h-7l-3-3-3-16-3-28v-41l4-27 5-22z" fill="#FDA7A7"/>
<path transform="translate(624,211)" d="m0 0h18l17 3 13 4 10 4 16 9 13 11 10 10-1 2-7-7-6-4-10-8-13-8-14-6-14-4-12-2h-22l-17 3-18 6-16 9-11 8-7 7h-2l-2 4-6 7-10 16-6 14-5 21-1 10v12l2 17 4 16 9 19 7 10 11 13 10 9 18 11 11 5 19 5 8 1h25l17-3 12-4 16-8 11-7 16-15 6-8 8-12h2l2-6 3-2-3 10-8 17-6 9-1-3 8-14-7 9-9 10-15 12-14 8-15 6-16 4-9 1h-21l-13-2-15-4-18-8-12-8-13-11-9-10-10-15-6-12-5-14-3-15v-34l6-23 8-16 7-11 8-10 11-11 17-12 17-8 17-5z" fill="#FEA8A8"/>
<path transform="translate(776,540)" d="m0 0h27l2 1-1 9-3 3-15 1-1 6 12 1 2 1-1 8-2 3-15 1-1 8h14l2 1-1 9-1 2h-30v-8l7-31 3-12z" fill="#FEFEFE"/>
<path transform="translate(592,539)" d="m0 0h13l8 5 1 4-6 7-3 1-4-2h-6l-4 6-2 6v12l3 3 10-1 3 5 1 6-7 4-2 1h-10l-8-4-5-8-1-5v-12l3-12 7-10 5-4z" fill="#FEFEFE"/>
<path transform="translate(583,523)" d="m0 0h229v5h-228z" fill="#FEACAC"/>
<path transform="translate(706,539)" d="m0 0h10l8 4 2 2-1 5-5 5-5-1h-7l-4 5-3 10v7l3 5h6l4-1 2 1 3 8-5 5-6 2-9-1-7-4-4-6-2-8v-8l4-15 6-8 5-5z" fill="#FEFEFE"/>
<path transform="translate(451,536)" d="m0 0h9l3 2 2 14 5-7 4-7 2-2h11l2 3-13 21-7 11-4 17-2 3h-11l-1-5 2-10v-11l-4-23 1-5z" fill="#FEFEFE"/>
<path transform="translate(739,540)" d="m0 0h9l2 1-1 9-7 32h12l2 1-1 9-1 2h-28l1-10 4-17 3-16 2-9z" fill="#FEFEFE"/>
<path transform="translate(654,259)" d="m0 0h5l-1 9-5 27-2 17v29l3 30 2 13v6l-8-1-14-9-8-7v-2h-2l-7-10-6-13-3-12v-22l4-14 6-12 7-9 9-9h2v-2l11-6zm-1 3-14 8-11 9-6 8-6 10-4 12-1 6v21l4 15 6 11 7 9 7 7 13 8 4 1 1-2-3-21-2-26v-22l2-22 5-25 1-7z" fill="#FFC3C3"/>
<path transform="translate(676,258)" d="m0 0h5l-1 7-5 26-2 17v39l4 37 1 7-5 1-2-2-3-22-2-16v-46l3-23 5-22z" fill="#FEFEFE"/>
<path transform="translate(698,259)" d="m0 0 5 1 12 6 9 7 9 9 4 9 5 7 4 16v22l-3 13-5 9-3 8-5 6h-2v2l-11 9-11 6-7 3h-5l-3-13-3-26-1-14v-24l3-27 5-24zm1 4-3 9-3 16-3 25v28l4 40 2 8 6-1 12-6 13-11 7-9 8-16 3-11v-19l-3-13-5-8-3-7-11-12-8-7-11-6z" fill="#FD9F9F"/>
<path transform="translate(400,536)" d="m0 0 9 1 2 2 3 12h2l6-9 4-5 2-1h10l2 1-1 9-6 27-3 15-3 3h-10l-1-1 1-10 2-9v-4l-7 10-3 2-2-2-2-9-2 3-3 16-3 4-9 1-2-1v-7l7-34 3-11 1-2zm0 3-2 2-4 17-5 25v5h7l3-9 3-16h4l3 10h3l7-10 4-1-3 16-1 10h7l3-6 5-26 3-13-1-4h-8l-8 10-4 6-4-1-4-14-1-1z" fill="#FD9D9D"/>
<path transform="translate(626,540)" d="m0 0h9l2 1-1 11-3 12-6 28-1 2h-12l-1-5 7-32 4-16z" fill="#FEFEFE"/>
<path transform="translate(556,504)" d="m0 0h16l1 5-7 32-3 16-7 31-3 5-1 1h-16l-3-2 2-13 8-35 3-16-8 1-2-2 1-13 3-5zm0 3-13 3-3 4-1 11 2 1 6-1h2l-2 12-2 7-3 17-6 26v4h16l5-19 6-28 3-12 2-12 2-8-1-5z" fill="#FDA5A5"/>
<path transform="translate(512,504)" d="m0 0h15l1 1v9l-3 12-4 20-3 12-4 20-3 12-3 4h-16l-3-2 1-8 7-32 3-16 1-8-8 1-1-1 1-16 3-3zm-1 3-14 4-1 1-1 14 7-1 2 1-1 10-4 16-5 26-2 7v6h15l3-7 5-24 3-11 4-21 4-20-1-1z" fill="#FEAFAF"/>
<path transform="translate(776,540)" d="m0 0h27l2 1-1 9-3 3-15 1-1 6 12 1 2 1-1 8-2 3-15 1-1 8h14l2 1-1 9-1 2h-30v-8l7-31 3-12zm2 2-2 3-6 27-4 19 1 1h25l1-1v-6l-15-1v-7l3-6 14-1 1-5-1-1-10-1-2-1 1-11 16-1 2-2v-6z" fill="#FDA3A3"/>
<path transform="translate(650,540)" d="m0 0h17l9 3 4 5 1 2v12l-4 7-5 5h-2l4 18-3 3h-7l-5-3-3-11-1-2-2 5-1 7-2 3-3 1h-8l-2-2 2-12 7-30 2-9zm2 2-2 2-6 27-2 8-2 12 1 1h7l3-9 1-7h6l3 14 2 2h8l-2-11-1-7 7-6 3-5v-13l-4-5-8-3z" fill="#FEAAAA"/>
<path transform="translate(451,536)" d="m0 0h9l3 2 2 14 5-7 4-7 2-2h11l2 3-13 21-7 11-4 17-2 3h-11l-1-5 2-10v-11l-4-23 1-5zm1 3 1 12 3 15v8l-2 9v5l4 1 5-2 3-15 7-12 11-18v-3h-7l-5 6-5 9v2l-4-1-1-3-1-11-1-2z" fill="#FDA1A1"/>
<path transform="translate(592,539)" d="m0 0h13l8 5 1 4-6 7-3 1-4-2h-6l-4 6-2 6v12l3 3 10-1 3 5 1 6-7 4-2 1h-10l-8-4-5-8-1-5v-12l3-12 7-10 5-4zm4 2-6 2-8 7-5 10-2 9v7l2 9 5 6 4 2h11l6-3-1-5-1-2h-10l-4-4-1-3v-9l4-11 6-5h5l5 2 4-4v-4l-5-3z" fill="#FDA7A7"/>
<path transform="translate(706,539)" d="m0 0h10l8 4 2 2-1 5-5 5-5-1h-7l-4 5-3 10v7l3 5h6l4-1 2 1 3 8-5 5-6 2-9-1-7-4-4-6-2-8v-8l4-15 6-8 5-5zm-1 3-6 4-6 8-4 13v13l4 8 5 4 2 1h9l6-3v-5l-4-2-7 1-4-4-1-3v-9l4-13 5-4h7l5 1v-2h2l1-5-6-3z" fill="#FDA0A0"/>
<path transform="translate(393,523)" d="m0 0h89l-1 5h-87z" fill="#FEACAC"/>
<path transform="translate(712,246)" d="m0 0 7 6 7 9 8 13 1 4h2l-9-21-2-5 4 4 9 20 4 13 4 23v28l-3 15-2 13-6 16-8 16-1-3 8-16 2-7-4 7-1-3 6-13 1-5h-2l2-6 4-8 2-10v-22l-4-16-6-9v-2h2l-4-10-9-15-8-10-4-4z" fill="#FD8C8C"/>
<path transform="translate(737,373)" d="m0 0 1 2-6 15-8 15-4 4 1-4 7-13-7 9-9 10-15 12-14 8-15 6-16 4-9 1h-21l-13-2-15-4-2-2 6 1 18 4 9 1h15l20-3 9-3h3v-2l16-8 10-6 14-12 7-8 8-11 4-6h2l2-6z" fill="#FEB6B6"/>
<path transform="translate(739,540)" d="m0 0h9l2 1-1 9-7 32h12l2 1-1 9-1 2h-28l1-10 4-17 3-16 2-9zm1 2-2 3-6 29-3 13v5h23l1-7-10-1-3-2 1-7 6-28v-5z" fill="#FEADAD"/>
<path transform="translate(655,272)" d="m0 0h1l-1 11-4 29v29l3 30 2 13v6l-8-1-14-9-8-7v-2h-2l-7-10-6-13-3-12v-22l4-14 4-8 1 2-5 13-2 10v16l4 16 1 5 3 1 9 14 8 8 11 7 1 3 7 2-4-31-1-12v-36l3-25z" fill="#FD9595"/>
<path transform="translate(624,211)" d="m0 0h18l17 3 13 4 10 4 16 9 13 11 10 10-1 2-7-7-6-4-10-8-13-8-14-6-14-4-12-2h-22l-19 2-19 7-6 2 3-3 11-5 17-5z" fill="#FEB0B0"/>
<path transform="translate(603,216)" d="m0 0h5l-3 2-18 6-16 9-11 8-7 7h-2l-2 4-6 7-10 16-6 14-5 21-1 10v12l2 17 3 11v5l-2-3-4-17-1-6v-25l3-16 5-15 2-8 8-13 9-12 12-12 17-12 9-3z" fill="#FD9A9A"/>
<path transform="translate(453,306)" d="m0 0 1 4v20l4 28 5 18 7 16 10 17 8 10 1 4 14 14h-3l-14-14-8-11-9-14-8-17-6-19-3-15v-40z" fill="#FDA3A3"/>
<path transform="translate(626,540)" d="m0 0h9l2 1-1 11-3 12-6 28-1 2h-12l-1-5 7-32 4-16zm2 2-3 3-5 25-4 16v5l1 1h6l3-6 3-17 3-12 2-9v-6z" fill="#FDA0A0"/>
<path transform="translate(404,562)" d="m0 0 3 1 3 10 4-4 5-7h4v8l-4 18 7-1 2-5 1 4-2 5h-10l-1-1 1-10 2-9v-4l-7 10-3 2-2-2-2-9-2 3-2 9h-2l-1 8-2 2h-8l-1-5 3-14h1v7l-2 10h7l4-19 2-6z" fill="#FFC3C3"/>
<path transform="translate(664,196)" d="m0 0 10 3 10 6 9 7 3 2v2l4 2 10 10v2h2l13 18 4 9 8 19v2h-2l-6-11-7-10v-3l5 5-8-14-8-10-9-10-10-10-13-9-7-4v-2l-5-1z" fill="#FEAAAA"/>
<path transform="translate(736,291)" d="m0 0 4 4 4 9 2 10v22l-3 13-5 9-3 8-5 6h-2v2l-11 9-8 5-8 2h-6l-2-7-3-23v-8h2l3 29 1 8 11-4 11-7 11-10 8-13 5-11 2-9v-19l-3-13-5-8z" fill="#FFC3C3"/>
<path transform="translate(525,516)" d="m0 0h1v8l-3 12-5 22-4 20-3 12-3 4h-16l-3-2 1-8 5-23h1l-1 9-2 10-1 11 15-1 3-9 2-11 3-12 3-16 4-17h2z" fill="#FD9A9A"/>
<path transform="translate(726,400)" d="m0 0 1 2-7 11-8 10-20 20-15 10-10 6-19 8-8 1 3-2h3v-2l19-8 17-10 11-9 10-9 7-8 9-11 4-4z" fill="#FDA5A5"/>
<path transform="translate(451,536)" d="m0 0h9l3 2 1 4v13l3-1v2l-5-1-1-3-1-13h-8l5 27v8l-3 14 9-1v2l-2 1h-8l-1-1v-10l1-3v-11l-4-23 1-5z" fill="#FDA2A2"/>
<path transform="translate(650,540)" d="m0 0h17l5 1v1l-20 1-3 9-5 25-2 5-1 9h9l1-7h1v7l-2 3-3 1h-8l-2-2 2-12 7-30 2-9z" fill="#FDA5A5"/>
<path transform="translate(659,550)" d="m0 0h7l4 5-1 7-4 5-2 1h-7l-2-2 2-12z" fill="#FEB1B1"/>
<path transform="translate(541,510)" d="m0 0 2 1-2 3-1 11 7-1 2 1v9l-3 10-3 17-7 30h16v1h-17v-13l8-35 2-9h2v-8h-9v-10l2-6z" fill="#FEAAAA"/>
<path transform="translate(655,267)" d="m0 0h1l-1 8-4 24-1 11v36l3 30 1 5v8l-7-2 1-2 4 1-2-18-1-4-2-26v-22l2-22 5-25z" fill="#FFC3C3"/>
<path transform="translate(795,568)" d="m0 0 1 3-3 2-12 1-1 8h14l2 1-1 9-2 1h-28l1-9 2-9h1l-1 10-1 6h25l1-6h-13l-3-3 1-7 3-5h14z" fill="#FEB3B3"/>
<path transform="translate(556,504)" d="m0 0h16l1 5-5 22h-1l1-9 1-14h-13l-7 2-8 1-2 6-1 10 9-1 1 4-1 5h-1v-7l-8 1-2-2 1-13 3-5z" fill="#FD8D8D"/>
<path transform="translate(592,539)" d="m0 0h13l1 3 5 2 1 5-5 5-3-1 5-4 1-4-9-3-10 1-8 7-5 10-2 9v7l1 9-2-3v-3h-2v-12l3-12 7-10 5-4z" fill="#FEAFAF"/>
<path transform="translate(400,536)" d="m0 0 9 1 2 2 3 12h2l2-1-2 4h-3l-3-10-2-5-10-1-4 27-2 6h-2l-1 10-1 8h8l3-9h1v7l-3 4-9 1-2-1v-7l7-34 3-11 1-2z" fill="#FD9696"/>
<path transform="translate(473,252)" d="m0 0 1 2-8 16-5 13-4 18-1 3-2 20h-1v-23l4-17 9-23 3-1 2-5z" fill="#FEAAAA"/>
<path transform="translate(744,346)" d="m0 0h1l-1 12-4 16-8 19-4 7-1-3 8-16 2-7-4 7-1-3 6-13 1-5h-2l2-6z" fill="#FD8888"/>
<path transform="translate(495,512)" d="m0 0h1v13l6-1 3 2-1 10-4 16-5 26-2 7h-1l1-8 2-11 1-11 3-12h2l1-9 1-8-9 1v-12z" fill="#FEBABA"/>
<path transform="translate(626,540)" d="m0 0h9l2 1v4h-2l-1 8-5 24h-1v-8l3-12 3-15-8 1-2 12-4 19-2 3 1-9 2-10 2-13 1-4z" fill="#FEB7B7"/>
<path transform="translate(743,568)" d="m0 0h1l-1 9-1 5h12l2 1-1 9-1 2h-28l1-10 2-8h1l-1 9-1 7 24 1 1-8h-10l-2-1v-8z" fill="#FD9B9B"/>
<path transform="translate(654,259)" d="m0 0h5l-1 9-2 4v-10l-16 8-16 13-2 1 2-4 10-10h2v-2l11-6z" fill="#FEB4B4"/>
<path transform="translate(803,548)" d="m0 0v3l-2 2-15 1-1 6 12 1 2 1-1 8-2 3-3-1 2-1v-6l-10-1-3-2 1-9 4-2 14-1z" fill="#FD8D8D"/>
<path transform="translate(736,291)" d="m0 0 4 4 4 9 2 10v22l-3 13-5 9-1 4-5 5-2-1 7-11 5-11 2-9v-19l-3-13-5-8z" fill="#FFC3C3"/>
<path transform="translate(476,536)" d="m0 0h11l2 3-4 6-4 4-3 5-1-2 6-10 1-3-7 1-4 5-5 9-4 1 2-4 8-13z" fill="#FEB2B2"/>
<path transform="translate(398,538)" d="m0 0h10l2 2 3 12 2 2 2-4 5-8 5-4h11v7l-2 3v-8h-8l-8 11-4 5-4-1-5-15h-7l-3 9h-1l1-9z" fill="#FFC3C3"/>
<path transform="translate(706,539)" d="m0 0h10l8 4 2 2v3l-4 2 1-5-6-2h-12l-6 4-4 5-3 3-2 5-1-3 4-8 8-8z" fill="#FDA7A7"/>
<path transform="translate(606,541)" d="m0 0 4 1 4 4-2 5-6 5-5-2h-6l-4 6-2 6-1 12h-1l-1-13 3-9 7-6h5l3 2v2l5-3 2-2v-4z" fill="#FD9D9D"/>
<path transform="translate(693,552)" d="m0 0 1 2-4 13v13l4 8 6 4-3 1-5-2-4-6-2-8v-8l2-9h2l2-7z" fill="#FEABAB"/>
<path transform="translate(661,552)" d="m0 0 6 2 1 4-3 6-2 2h-6l1-8 1-5z" fill="#FD0000"/>
<path transform="translate(701,579)" d="m0 0 3 2h6l4-1 2 1 3 8-5 5-6 2-9-1-4-2 2-1h12l5-2v-5l-5-1-7-2z" fill="#FDA0A0"/>
<path transform="translate(650,540)" d="m0 0h17l5 1v1l-20 1-3 9-2 9h-2l-1 8h-1l1-9 3-16z" fill="#FDA3A3"/>
<path transform="translate(543,191)" d="m0 0 3 1-16 8-12 7-12 9-2-1 7-6 5-5 10-6 10-4z" fill="#FEB5B5"/>
<path transform="translate(726,400)" d="m0 0 1 2-7 11-8 10-9 9-3-1 4-5 5-5 6-7 4-5 4-4z" fill="#FDA5A5"/>
<path transform="translate(580,549)" d="m0 0 2 1-4 10-2 9v7l1 9-2-3v-3h-2v-12l3-12z" fill="#FEAEAE"/>
<path transform="translate(723,251)" d="m0 0 3 1 8 16 3 10h-2l-6-11-7-10v-3l5 5z" fill="#FEC3C3"/>
<path transform="translate(453,551)" d="m0 0 2 3 2 12v8l-3 14 9-1v2l-2 1h-8l-1-1v-10l1-3h2v-8l-2-10z" fill="#FEB5B5"/>
<path transform="translate(747,542)" d="m0 0h2l-1 13-3 13h-2l-1 8-1 7-2-1 1-7z" fill="#FEB4B4"/>
<path transform="translate(501,507)" d="m0 0h5l-3 3-8 2-1 15 9-1v8l-2 9h-1v-7l1-8-8 1-1-1 1-16 3-3z" fill="#FD9292"/>
<path transform="translate(687,226)" d="m0 0 4 1 11 7 13 12 6 6-1 2-7-7-6-4-7-6-5-5-8-5z" fill="#FEADAD"/>
<path transform="translate(586,567)" d="m0 0h1v11l4 2 5 1 1-1h5l2 2 1 7h-2l-2-6-3 1h-7l-5-5-1-3v-8z" fill="#FEB2B2"/>
<path transform="translate(715,268)" d="m0 0 4 1 8 7 8 9 1 6-5-5-7-8-9-8z" fill="#FEAAAA"/>
<path transform="translate(550,248)" d="m0 0v3l-7 8-9 14-3 3-3 4 1-5 8-13 6-8z" fill="#FEB0B0"/>
<path transform="translate(419,562)" d="m0 0h4v8l-4 18 7-1 2-5 1 4-2 4h-9l-1-4 5-22-5 2z" fill="#FFC3C3"/>
<path transform="translate(621,554)" d="m0 0 1 4-3 14-1 12-1 2h-2v7h8v1h-9l-1-5 7-32z" fill="#FD9595"/>
<path transform="translate(603,216)" d="m0 0h5l-3 2-18 6-16 9-5 2 6-7 3-2 9-3z" fill="#FD8D8D"/>
<path transform="translate(513,566)" d="m0 0h1l-1 9-1 12-2 5h-19l-1-3 2-4v6l15-1 3-9 2-11z" fill="#FEBABA"/>
<path transform="translate(735,362)" d="m0 0 1 2-6 8h-2v2l-11 9-5 2 6-7 12-11z" fill="#FDA2A2"/>
<path transform="translate(654,259)" d="m0 0h5l-1 9-2 4v-10l-9 4h-5l3-3z" fill="#FDA1A1"/>
<path transform="translate(545,507)" d="m0 0h5l-3 2-7 3-2 15 9-1 1 4-1 5h-1v-7l-8 1-2-2 1-13 3-5z" fill="#FD8D8D"/>
<path transform="translate(557,505)" d="m0 0h13l1 1v8l-2 3v-9h-13l-7 2h-6l4-2z" fill="#FFC3C3"/>
<path transform="translate(723,396)" d="m0 0v3l-12 13-6 5-2-1 14-15z" fill="#FEB2B2"/>
<path transform="translate(483,545)" d="m0 0 1 2-15 24h-1v-5l8-12 3-3z" fill="#FD9C9C"/>
<path transform="translate(427,538)" d="m0 0h11v7l-2 3v-8h-8l-7 9-4 1 5-8z" fill="#FEB2B2"/>
<path transform="translate(419,564)" d="m0 0h3l-2 12-2 13 9 1v1h-10l-1-1 1-10 2-9v-4l-3 3 2-5z" fill="#FD8D8D"/>
<path transform="translate(487,421)" d="m0 0 4 2 13 13 7 6-4 1-14-15z" fill="#FEB9B9"/>
<path transform="translate(701,558)" d="m0 0 1 3-1 3v12l2 6 6 1v2l-7-1-3-4-1-3v-9z" fill="#FEBABA"/>
<path transform="translate(659,550)" d="m0 0h7l3 3-1 2-7-2h-2l-1 9-2 4v-12z" fill="#FEAFAF"/>
<path transform="translate(404,564)" d="m0 0h2l3 11h2l3-2-2 4-3 2-2-2-2-9-2 3-2 9-1-4 2-10z" fill="#FD8D8D"/>
<path transform="translate(541,510)" d="m0 0 2 1-2 3-1 11 7-1 2 1v5l-2-3h-9v-10l2-6z" fill="#FFC3C3"/>
<path transform="translate(627,279)" d="m0 0v3l-4 5-6 10-1 3-2-1 4-11 5-5z" fill="#FEB5B5"/>
<path transform="translate(480,239)" d="m0 0 1 2-3 7-6 7-4 5 1-4 10-16z" fill="#FD9B9B"/>
<path transform="translate(675,221)" d="m0 0 11 3 1 3 5 2 8 6h-3l-13-8-9-4z" fill="#FD9292"/>
<path transform="translate(390,571)" d="m0 0h1v7l-2 10 7-1 2-1-2 4h-8l-1-5z" fill="#FFC3C3"/>
<path transform="translate(548,530)" d="m0 0 1 4-3 10-2 10-1-4 1-13 1-2h2z" fill="#FEB5B5"/>
<path transform="translate(783,553)" d="m0 0 1 4v4l12 1 2 3-2 3-1-3-10-1-3-2z" fill="#FFC3C3"/>
<path transform="translate(515,558)" d="m0 0h2v7l-4 16h-1l1-9 1-12z" fill="#FD9B9B"/>
<path transform="translate(476,536)" d="m0 0h11l2 3-4 6-1-2 2-5-10 1h-3z" fill="#FD8D8D"/>
<path transform="translate(736,291)" d="m0 0 4 4 4 9 1 10-2-2-2-9-5-8z" fill="#FFC3C3"/>
<path transform="translate(678,429)" d="m0 0 4 1-1 2-13 5-3-1 4-2h3v-2z" fill="#FEB0B0"/>
<path transform="translate(455,576)" d="m0 0 1 3-2 9 9-1v2l-2 1h-8l-1-4 2-9z" fill="#FFC3C3"/>
<path transform="translate(493,226)" d="m0 0v3l-7 7-5 7-1-2 2-5z" fill="#FEB7B7"/>
<path transform="translate(509,443)" d="m0 0 6 1 6 5 1 3-5-2-8-6z" fill="#FDA6A6"/>
<path transform="translate(698,261)" d="m0 0 7 1 11 5-1 2-5-2-6-3h-5l-2 1z" fill="#FEBDBD"/>
<path transform="translate(473,252)" d="m0 0 1 2-8 16-2 2 2-11 3-1 2-5z" fill="#FEBABA"/>
<path transform="translate(574,579)" d="m0 0 2 3v3l3 1 4 5v2l2 1-4-1-5-5-2-4z" fill="#FD9D9D"/>
<path transform="translate(589,557)" d="m0 0h1v7l-1 2-1 12h-1l-1-13z" fill="#FDA4A4"/>
<path transform="translate(698,544)" d="m0 0 3 1-6 7-3 3-2 5-1-3 4-8z" fill="#FD9F9F"/>
<path transform="translate(726,400)" d="m0 0 1 2-7 11-6 4 2-5 5-4z" fill="#FD9F9F"/>
<path transform="translate(550,248)" d="m0 0v3l-7 8-4 4 1-5 5-5z" fill="#FD9D9D"/>
<path transform="translate(654,575)" d="m0 0m-2 1 4 2-3 6h-2l-1 7h-1l1-8z" fill="#FEB1B1"/>
<path transform="translate(741,349)" d="m0 0v3l-4 10-5 5-2-1 7-11 3-5z" fill="#FEBFBF"/>
<path transform="translate(718,240)" d="m0 0 5 5 3 5-1 2-5-5-3-5z" fill="#FDA7A7"/>
<path transform="translate(575,226)" d="m0 0h4l-1 3-10 6-2-1 5-5z" fill="#FD9D9D"/>
<path transform="translate(729,392)" d="m0 0 1 2-8 14-2 1 1-4 7-12z" fill="#FFC3C3"/>
<path transform="translate(687,226)" d="m0 0 4 1 11 7 3 4-5-2-8-6z" fill="#FFC3C3"/>
<path transform="translate(634,270)" d="m0 0 2 1-7 8-7 5 2-4z" fill="#FD9292"/>
<path transform="translate(675,567)" d="m0 0h2l-2 4-3 3h-2v5h-1l-1-6z" fill="#FDA7A7"/>
<path transform="translate(465,264)" d="m0 0 1 3-5 16-1-3 2-9z" fill="#FDA7A7"/>
<path transform="translate(510,208)" d="m0 0 2 1-7 6-4 5-3-1 8-8z" fill="#FD9494"/>
<path transform="translate(537,458)" d="m0 0 6 2 6 3v1h-6l-4-2v-2h-2z" fill="#FEB1B1"/>
<path transform="translate(416,566)" d="m0 0 1 2-2 5-6 4-1-4 4-1z" fill="#FEBABA"/>
<path transform="translate(657,553)" d="m0 0h2l-1 9-2 4v-12z" fill="#FDA1A1"/>
<path transform="translate(580,549)" d="m0 0 2 1-2 5-1 3-3 1 1-5z" fill="#FEAAAA"/>
<path transform="translate(706,411)" d="m0 0 2 1-8 9-3-1 5-5z" fill="#FD9F9F"/>
<path transform="translate(534,385)" d="m0 0 6 5 4 5-1 2-6-5-3-5z" fill="#FEAAAA"/>
<path transform="translate(715,380)" d="m0 0 2 1-8 7h-3l2-4z" fill="#FEB4B4"/>
</svg>
