<svg width="24" height="24" viewBox="0 0 24 24" fill="none" xmlns="http://www.w3.org/2000/svg">
<g clip-path="url(#clip0_1085_173519)">
<path d="M12.0142 23.9988C10.4335 24.002 8.86774 23.6925 7.40708 23.0883C5.94642 22.4841 4.61964 21.597 3.50308 20.4782C2.38652 19.3593 1.50221 18.0307 0.901032 16.5687C0.299854 15.1068 -0.00632859 13.5405 9.91418e-05 11.9598C9.91418e-05 5.34077 5.39077 -0.00116945 12.0635 0.00195449C18.6713 0.00195449 24.0057 5.40575 24.0001 12.0872C23.992 18.6344 18.5976 23.9988 12.0142 23.9988ZM9.34694 8.25791C8.55845 8.25791 7.78934 8.25166 7.02022 8.25791C6.48415 8.26353 6.18051 8.61654 6.22987 9.15073C6.25673 9.44126 6.2811 9.73116 6.30609 10.0217C6.51435 12.3959 6.72261 14.7701 6.93088 17.1443C6.97024 17.5929 7.25702 17.8659 7.71249 17.8672C10.5661 17.8717 13.4193 17.8717 16.2721 17.8672C16.7344 17.8672 17.0218 17.5716 17.0606 17.1099C17.0893 16.7575 17.1149 16.4045 17.1455 16.0521C17.3455 13.7823 17.551 11.5131 17.7447 9.24195C17.8041 8.55468 17.5173 8.25853 16.8275 8.25791H14.8376C14.5252 6.46227 13.5118 5.52196 11.9529 5.56195C10.8933 5.58881 9.47189 6.39979 9.34694 8.25791Z" fill="#DF1F25"/>
<path d="M9.34682 8.25773C9.47178 6.39961 10.8932 5.58864 11.9528 5.56177C13.5117 5.52178 14.5276 6.46209 14.8375 8.25773H16.8255C17.5128 8.25773 17.8021 8.55201 17.7427 9.24178C17.549 11.5123 17.3435 13.7815 17.1436 16.052C17.1129 16.4044 17.0873 16.7574 17.0586 17.1097C17.0217 17.5715 16.7324 17.8664 16.2701 17.867C13.4165 17.8724 10.5633 17.8724 7.7105 17.867C7.25503 17.867 6.96825 17.5927 6.92889 17.1441C6.72062 14.7699 6.51236 12.3957 6.3041 10.0215C6.27911 9.73098 6.25474 9.44108 6.22787 9.15056C6.17852 8.61636 6.48216 8.26336 7.01823 8.25773C7.78922 8.25398 8.55959 8.25773 9.34682 8.25773ZM14.1133 14.8767C15.0174 14.8799 15.6191 14.3088 15.6178 13.4491C15.6178 12.6019 15.0186 12.024 14.1421 12.0215C13.2486 12.0215 12.632 12.6069 12.637 13.4553C12.642 14.3038 13.2255 14.8705 14.1133 14.8767ZM8.65205 13.639C8.43775 13.7359 8.30155 13.9464 8.3534 14.1732C8.39901 14.3713 8.54084 14.6437 8.70579 14.6974C9.066 14.8193 9.44654 14.8696 9.82603 14.8455C10.4552 14.7955 10.8226 14.4425 10.8782 13.8096C10.9407 13.088 10.9269 12.3576 10.9119 11.6322C10.9119 11.5073 10.757 11.298 10.6395 11.2698C10.1672 11.1555 9.80229 11.218 9.81666 11.8409C9.82853 12.3701 9.82478 12.903 9.81666 13.4304C9.80854 13.8521 9.558 14.0389 9.15688 13.9114C8.98257 13.854 8.83137 13.7359 8.65205 13.6359V13.639ZM13.5841 8.24399C13.536 7.33742 12.8538 6.66952 12.0403 6.70263C11.6446 6.72027 11.2712 6.89082 10.9989 7.17836C10.7265 7.46589 10.5764 7.84794 10.5802 8.24399H13.5841ZM11.3087 13.4335C11.3087 13.7459 11.2999 14.0583 11.3087 14.3707C11.3174 14.6831 11.4574 14.808 11.7785 14.8218C12.1534 14.8349 12.3346 14.7293 12.3458 14.4063C12.3679 13.7632 12.3679 13.1198 12.3458 12.4763C12.3352 12.147 12.1721 12.0483 11.7835 12.0589C11.4611 12.0671 11.3193 12.1895 11.3068 12.5025C11.2943 12.8156 11.3087 13.1217 11.3087 13.4335ZM11.8485 11.7665C12.1959 11.7628 12.3908 11.5822 12.3877 11.2667C12.3845 10.9512 12.1796 10.7806 11.8322 10.7781C11.4986 10.7781 11.2699 10.9724 11.2668 11.2667C11.2618 11.5747 11.4892 11.7703 11.8478 11.7665H11.8485Z" fill="#FEFEFE"/>
<path d="M14.1131 14.8768C13.2253 14.8737 12.6417 14.3145 12.6367 13.4554C12.6318 12.5963 13.2484 12.0184 14.1419 12.0215C15.0166 12.0215 15.6164 12.6019 15.6176 13.4491C15.6195 14.3057 15.0172 14.8768 14.1131 14.8768ZM14.7092 13.4485C14.7092 13.0874 14.4593 12.8237 14.12 12.8237C13.792 12.8275 13.5514 13.0811 13.5458 13.4279C13.5402 13.7996 13.772 14.0577 14.1162 14.0627C14.4605 14.0677 14.7085 13.8059 14.7092 13.4454V13.4485Z" fill="#DF1F25"/>
<path d="M8.65223 13.6356C8.83155 13.7356 8.98274 13.8537 9.15206 13.908C9.55318 14.033 9.80372 13.8487 9.81184 13.4269C9.82246 12.8971 9.82621 12.3648 9.81184 11.8375C9.79747 11.2127 10.1623 11.1502 10.6347 11.2664C10.7521 11.2945 10.9046 11.5014 10.9071 11.6288C10.9221 12.3542 10.9365 13.0846 10.8734 13.8062C10.8177 14.4391 10.4504 14.7921 9.82121 14.8421C9.44172 14.8661 9.06118 14.8158 8.70097 14.694C8.53852 14.6403 8.39419 14.3679 8.34858 14.1698C8.30173 13.943 8.43793 13.7325 8.65223 13.6356Z" fill="#DF1F25"/>
<path d="M13.5841 8.24077H10.5801C10.5764 7.84473 10.7265 7.46268 10.9989 7.17514C11.2712 6.88761 11.6446 6.71705 12.0403 6.69942C12.8538 6.66631 13.536 7.33421 13.5841 8.24077Z" fill="#DF1F25"/>
<path d="M11.3089 13.4331C11.3089 13.1207 11.2995 12.8083 11.3089 12.499C11.3182 12.1898 11.4632 12.0617 11.7856 12.0554C12.1729 12.0448 12.336 12.1435 12.3479 12.4728C12.3687 13.1159 12.3687 13.7592 12.3479 14.4028C12.3366 14.7258 12.1604 14.8314 11.7806 14.8183C11.4594 14.807 11.322 14.6846 11.3107 14.3672C11.2995 14.0498 11.3089 13.7443 11.3089 13.4331Z" fill="#DF1F25"/>
<path d="M11.8479 11.7668C11.4892 11.7705 11.2618 11.5749 11.2662 11.2669C11.2705 10.9727 11.498 10.7758 11.8316 10.7783C12.179 10.7783 12.3839 10.9608 12.387 11.2669C12.3902 11.5731 12.1952 11.763 11.8479 11.7668Z" fill="#DF1F25"/>
<path d="M14.7094 13.4456C14.7094 13.8061 14.4594 14.0666 14.1164 14.0623C13.7734 14.0579 13.5404 13.7992 13.546 13.4275C13.5516 13.0807 13.7922 12.827 14.1202 12.8233C14.4582 12.8189 14.7094 13.0845 14.7094 13.4456Z" fill="#FEFEFE"/>
</g>
<defs>
<clipPath id="clip0_1085_173519">
<rect width="24" height="24" fill="white"/>
</clipPath>
</defs>
</svg>
