<svg width="24" height="24" viewBox="0 0 24 24" fill="none" xmlns="http://www.w3.org/2000/svg">
<rect width="24" height="24" rx="4" fill="#1428A0"/>
<path d="M18.5138 10.5937L18.5521 12.7969H18.5329L17.8835 10.5937H16.8138V13.3687H17.5205L17.4823 11.0907H17.5015L18.1987 13.3687H19.2207V10.5937H18.5138ZM5.05633 10.5937L4.5215 13.3969H5.29517L5.68675 10.8469H5.70583L6.08792 13.3969H6.852L6.32667 10.5937H5.05633ZM9.37342 10.5937L9.02008 12.7313H9.00092L8.64758 10.5937H7.48233L7.425 13.3969H8.14133L8.1605 10.875H8.17L8.6475 13.3969H9.37342L9.851 10.875H9.87017L9.88917 13.3969H10.6055L10.5387 10.5937H9.37342ZM3.31808 12.6C3.34667 12.6656 3.33717 12.7594 3.32758 12.8063C3.3085 12.9 3.24167 12.9938 3.05058 12.9938C2.86917 12.9938 2.76408 12.8907 2.76408 12.7406V12.4688H2V12.6844C2 13.3125 2.50617 13.5 3.04108 13.5C3.55683 13.5 3.98658 13.3218 4.0535 12.8625C4.09167 12.6187 4.063 12.4594 4.0535 12.4031C3.91975 11.8125 2.831 11.6438 2.7545 11.3156C2.745 11.2593 2.745 11.2031 2.7545 11.1656C2.77367 11.0718 2.8405 10.9781 3.01242 10.9781C3.18433 10.9781 3.27992 11.0812 3.27992 11.2313V11.4H3.99617V11.2031C3.99617 10.5937 3.43267 10.5 3.0315 10.5C2.52533 10.5 2.10508 10.6687 2.02867 11.1187C2.0095 11.2406 2 11.3531 2.03817 11.4938C2.15283 12.075 3.17492 12.2438 3.31808 12.6ZM12.6113 12.6C12.6399 12.6657 12.6303 12.75 12.6208 12.8063C12.6017 12.9 12.5348 12.9938 12.3438 12.9938C12.1623 12.9938 12.0573 12.8907 12.0573 12.7406V12.4688H11.2932V12.6844C11.2932 13.3031 11.7898 13.4907 12.3247 13.4907C12.8405 13.4907 13.2607 13.3219 13.3276 12.8531C13.3658 12.6094 13.3372 12.4594 13.3276 12.3938C13.213 11.8125 12.1337 11.6344 12.0573 11.3157C12.0477 11.2594 12.0477 11.2031 12.0573 11.1656C12.0764 11.0718 12.1432 10.9781 12.3152 10.9781C12.4775 10.9781 12.5827 11.0812 12.5827 11.2313V11.4H13.2893V11.2031C13.2893 10.5937 12.7354 10.5 12.3343 10.5C11.8281 10.5 11.4173 10.6593 11.341 11.1187C11.3218 11.2406 11.3218 11.3531 11.3505 11.4938C11.4652 12.075 12.468 12.2343 12.6113 12.6ZM15.0182 12.975C15.2188 12.975 15.276 12.8437 15.2951 12.7687C15.3047 12.7407 15.3047 12.6937 15.3047 12.6657V10.5937H16.0305V12.6094C16.0305 12.6657 16.0305 12.7687 16.021 12.7969C15.9732 13.3219 15.553 13.4907 15.0277 13.4907C14.5024 13.4907 14.0822 13.3219 14.0343 12.7969C14.0343 12.7687 14.0248 12.6657 14.0248 12.6094V10.5937H14.7507V12.6657C14.7507 12.7031 14.7507 12.7406 14.7602 12.7687C14.7602 12.8437 14.8176 12.975 15.0182 12.975ZM20.978 12.9469C21.1882 12.9469 21.255 12.8156 21.2741 12.7406C21.2837 12.7125 21.2837 12.6656 21.2837 12.6375V12.2343H20.9876V11.8218H22V12.5719C22 12.6281 22 12.6656 21.9904 12.7594C21.9427 13.275 21.4937 13.4531 20.9876 13.4531C20.4813 13.4531 20.0325 13.275 19.9847 12.7594C19.9752 12.6656 19.9752 12.6281 19.9752 12.5718V11.3907C19.9752 11.3437 19.9847 11.25 19.9847 11.2031C20.0516 10.6781 20.4814 10.5093 20.9876 10.5093C21.4937 10.5093 21.9332 10.6781 21.9904 11.2031C22 11.2875 22 11.3906 22 11.3906V11.4843H21.2837V11.325C21.2837 11.325 21.2837 11.2593 21.2741 11.2219C21.2646 11.1563 21.2073 11.0157 20.9876 11.0157C20.7775 11.0157 20.7201 11.1469 20.7011 11.2219C20.6915 11.2593 20.6915 11.3063 20.6915 11.3531V12.6375C20.6915 12.675 20.6915 12.7125 20.7011 12.7406C20.7011 12.8156 20.7775 12.9469 20.978 12.9469Z" fill="white"/>
</svg>
