<svg width="24" height="25" viewBox="0 0 24 25" fill="none" xmlns="http://www.w3.org/2000/svg">
<g clip-path="url(#clip0_14511_13513)">
<path d="M11.9292 20.0629C7.95932 20.0629 6.14555 18.0406 6.14555 16.5573C6.14502 16.2035 6.29024 15.865 6.54706 15.6216C6.80388 15.3782 7.14962 15.2513 7.50293 15.2707C9.2026 15.2707 8.75801 17.8203 11.9292 17.8203C13.5501 17.8203 14.5023 16.8445 14.5023 15.9278C14.5023 15.377 14.1875 14.7475 13.1174 14.4957L9.57637 13.6025C6.73178 12.8786 6.23604 11.297 6.23604 9.82943C6.23604 6.78419 9.02162 5.68255 11.6734 5.68255C14.1167 5.68255 17.0203 7.03206 17.0203 8.85763C17.0203 9.64451 16.3633 10.0655 15.6 10.0655C14.1482 10.0655 14.3921 8.02746 11.4728 8.02746C10.021 8.02746 9.25768 8.70812 9.25768 9.66025C9.25768 10.6124 10.3869 10.935 11.3783 11.1514L13.9908 11.7416C16.8551 12.3868 17.6183 14.0668 17.6183 15.676C17.6183 18.1507 15.7023 20.0629 11.9252 20.0629M22.8905 14.8262C23.0039 14.1766 23.0605 13.5183 23.0597 12.8589C23.0735 9.54659 21.6181 6.39856 19.0857 4.26342C16.5533 2.12828 13.2046 1.22581 9.94227 1.79927C8.93954 1.22194 7.80228 0.919306 6.64522 0.921891C4.27025 0.9364 2.08109 2.20926 0.893604 4.26611C-0.293878 6.32295 -0.301559 8.85526 0.873422 10.9193C0.217791 14.5218 1.36626 18.2171 3.94838 20.8134C6.5305 23.4096 10.2195 24.5782 13.8256 23.9422C14.8271 24.519 15.9629 24.8217 17.1187 24.8196C19.4924 24.8043 21.6803 23.532 22.8675 21.4764C24.0547 19.4208 24.0635 16.8899 22.8905 14.8262Z" fill="#0078D7"/>
</g>
<defs>
<clipPath id="clip0_14511_13513">
<rect width="24" height="24" fill="white" transform="translate(0 0.921875)"/>
</clipPath>
</defs>
</svg>
