<svg xmlns="http://www.w3.org/2000/svg" width="24" height="24" viewBox="0 0 24 24" fill="none">
  <g clip-path="url(#clip0_2493_19255)">
    <mask id="mask0_2493_19255" style="mask-type:luminance" maskUnits="userSpaceOnUse" x="0" y="0" width="24" height="24">
      <path d="M0 0H24V24H0V0Z" fill="white"/>
    </mask>
    <g mask="url(#mask0_2493_19255)">
      <path d="M19.159 8.17631C19.7906 9.32878 20.15 10.6514 20.15 12.0582C20.15 15.0434 18.5322 17.6497 16.1266 19.0523L18.598 11.9066C19.0596 10.7522 19.2134 9.82917 19.2134 9.0084C19.2134 8.7105 19.1937 8.43402 19.159 8.17631ZM13.1736 8.2644C13.6608 8.23878 14.0997 8.18755 14.0997 8.18755C14.5357 8.13593 14.4843 7.49516 14.0481 7.52069C14.0481 7.52069 12.7375 7.62355 11.8914 7.62355C11.0963 7.62355 9.76031 7.52069 9.76031 7.52069C9.32393 7.49516 9.27278 8.16174 9.70897 8.18755C9.70897 8.18755 10.1217 8.23878 10.5577 8.2644L11.8183 11.7186L10.0473 17.0294L7.10078 8.2644C7.58831 8.23878 8.02678 8.18755 8.02678 8.18755C8.4625 8.13593 8.41107 7.49516 7.97507 7.52069C7.97507 7.52069 6.66469 7.62355 5.8185 7.62355C5.66669 7.62355 5.48774 7.61983 5.29774 7.61374C6.74459 5.41717 9.23145 3.96659 12.0585 3.96659C14.165 3.96659 16.0831 4.77202 17.5226 6.09107C17.4877 6.08897 17.4537 6.08459 17.4178 6.08459C16.623 6.08459 16.059 6.77697 16.059 7.52069C16.059 8.18755 16.4437 8.75174 16.8538 9.4185C17.1615 9.95745 17.521 10.6497 17.521 11.6501C17.521 12.3426 17.2546 13.1463 16.9053 14.2659L16.0979 16.9626L13.1736 8.2644ZM12.0585 20.1505C11.2642 20.1505 10.4976 20.034 9.7725 19.8208L12.2006 12.766L14.6876 19.5802C14.704 19.6202 14.7241 19.6571 14.7455 19.6917C13.9045 19.9878 13.0008 20.1505 12.0585 20.1505ZM3.96688 12.0582C3.96688 10.8851 4.2185 9.77145 4.66755 8.76517L8.52745 19.3406C5.82793 18.0292 3.96688 15.2611 3.96688 12.0582ZM12.0585 3.0585C7.09593 3.0585 3.05859 7.09574 3.05859 12.0582C3.05859 17.0209 7.09593 21.0586 12.0585 21.0586C17.021 21.0586 21.0585 17.0209 21.0585 12.0582C21.0585 7.09574 17.021 3.0585 12.0585 3.0585Z" fill="#3F3C3C"/>
    </g>
  </g>
  <defs>
    <clipPath id="clip0_2493_19255">
      <rect width="24" height="24" fill="white"/>
    </clipPath>
  </defs>
</svg>